<svg width="95" height="95" viewBox="0 0 95 95" fill="none" xmlns="http://www.w3.org/2000/svg">
<g filter="url(#filter0_d)">
<rect x="20" y="8" width="55" height="55" rx="20" fill="#F9FDFF"/>
</g>
<path d="M57.1406 37.2084C57.6153 37.2084 58 36.8236 58 36.349V31.3594C58 29.4639 56.4579 27.9219 54.5625 27.9219H39.4375C37.5421 27.9219 36 29.4639 36 31.3594V40.6406C36 42.5361 37.5421 44.0781 39.4375 44.0781H54.5625C56.4579 44.0781 58 42.5361 58 40.6406C58 40.166 57.6153 39.7812 57.1406 39.7812C56.666 39.7812 56.2812 40.166 56.2812 40.6406C56.2812 41.5883 55.5102 42.3594 54.5625 42.3594H39.4375C38.4898 42.3594 37.7188 41.5883 37.7188 40.6406V34.2006H56.2812V36.349C56.2812 36.8236 56.666 37.2084 57.1406 37.2084ZM37.7188 32.4818V31.3594C37.7188 30.4117 38.4898 29.6406 39.4375 29.6406H54.5625C55.5102 29.6406 56.2812 30.4117 56.2812 31.3594V32.4818H37.7188Z" fill="#84848D"/>
<defs>
<filter id="filter0_d" x="0" y="0" width="95" height="95" filterUnits="userSpaceOnUse" color-interpolation-filters="sRGB">
<feFlood flood-opacity="0" result="BackgroundImageFix"/>
<feColorMatrix in="SourceAlpha" type="matrix" values="0 0 0 0 0 0 0 0 0 0 0 0 0 0 0 0 0 0 127 0" result="hardAlpha"/>
<feOffset dy="12"/>
<feGaussianBlur stdDeviation="10"/>
<feColorMatrix type="matrix" values="0 0 0 0 0.845833 0 0 0 0 0.651737 0 0 0 0 0.0775347 0 0 0 0.31 0"/>
<feBlend mode="normal" in2="BackgroundImageFix" result="effect1_dropShadow"/>
<feBlend mode="normal" in="SourceGraphic" in2="effect1_dropShadow" result="shape"/>
</filter>
</defs>
</svg>
