<svg width="95" height="95" viewBox="0 0 95 95" fill="none" xmlns="http://www.w3.org/2000/svg">
<g filter="url(#filter0_d)">
<rect x="20" y="8" width="55" height="55" rx="20" fill="#F9FDFF"/>
</g>
<path d="M47 24C40.9378 24 36 28.9378 36 35C36 41.0622 40.9378 46 47 46C53.0622 46 58 41.0622 58 35C58 28.9378 53.0622 24 47 24ZM47 44.0444C42.0133 44.0444 37.9556 39.9867 37.9556 35C37.9556 30.0133 42.0133 25.9556 47 25.9556C51.9867 25.9556 56.0444 30.0133 56.0444 35C56.0444 39.9867 51.9867 44.0444 47 44.0444Z" fill="#84848D"/>
<path d="M46.9957 30.3067C47.6707 30.3067 48.2179 29.7595 48.2179 29.0845C48.2179 28.4095 47.6707 27.8623 46.9957 27.8623C46.3206 27.8623 45.7734 28.4095 45.7734 29.0845C45.7734 29.7595 46.3206 30.3067 46.9957 30.3067Z" fill="#84848D"/>
<path d="M47.0002 32.14C46.4625 32.14 46.0225 32.58 46.0225 33.1178V41.1845C46.0225 41.7222 46.4625 42.1622 47.0002 42.1622C47.538 42.1622 47.978 41.7222 47.978 41.1845V33.1178C47.978 32.5556 47.538 32.14 47.0002 32.14Z" fill="#84848D"/>
<defs>
<filter id="filter0_d" x="0" y="0" width="95" height="95" filterUnits="userSpaceOnUse" color-interpolation-filters="sRGB">
<feFlood flood-opacity="0" result="BackgroundImageFix"/>
<feColorMatrix in="SourceAlpha" type="matrix" values="0 0 0 0 0 0 0 0 0 0 0 0 0 0 0 0 0 0 127 0" result="hardAlpha"/>
<feOffset dy="12"/>
<feGaussianBlur stdDeviation="10"/>
<feColorMatrix type="matrix" values="0 0 0 0 0.845833 0 0 0 0 0.651737 0 0 0 0 0.0775347 0 0 0 0.31 0"/>
<feBlend mode="normal" in2="BackgroundImageFix" result="effect1_dropShadow"/>
<feBlend mode="normal" in="SourceGraphic" in2="effect1_dropShadow" result="shape"/>
</filter>
</defs>
</svg>
